# xmcd CD database file
#
# Track frame offsets:
#	150
#	21867
#	43077
#
# Disc length: 860 seconds
#
# Revision: 0
# Processed by: cddbd v1.5.1PL0 Copyright (c) Steve Scherf et al.
# Submitted via: CDex 1.51
#
DISCID=1e035a03
DTITLE=山崎まさよし - メヌエット
DYEAR=2005
DGENRE=JPop
TTITLE0=メヌエット
TTITLE1=メヌエット (Acoustic Version)
TTITLE2=メヌエット (Original Karaoke)
EXTD=YEAR: 2005
EXTT0=
EXTT1=
EXTT2=
PLAYORDER=
